<svg width="457" height="457" viewBox="0 0 457 457" fill="none" xmlns="http://www.w3.org/2000/svg">
<path d="M0 71.5679C0 32.0421 32.042 0 71.5679 0H385.432C424.958 0 457 32.042 457 71.5679V385.432C457 424.958 424.958 457 385.432 457H71.5679C32.0421 457 0 424.958 0 385.432V71.5679Z" fill="#00CDC2"/>
<path fill-rule="evenodd" clip-rule="evenodd" d="M107.2 141.401C100.462 125.062 108.245 106.356 124.583 99.6178L241.991 51.1999C258.33 44.4621 277.037 52.2449 283.774 68.5833L319.421 155.022C321.947 161.148 319.029 168.164 312.902 170.69L301.808 175.265C295.681 177.792 288.666 174.873 286.14 168.746L258.141 100.853C254.76 92.6531 245.371 88.7472 237.171 92.1287L156.853 125.251C148.653 128.633 144.747 138.021 148.129 146.221L167.42 193H343C360.673 193 375 207.327 375 225V355C375 372.673 360.673 387 343 387H114C96.3269 387 82 372.673 82 355V225C82 207.327 96.3269 193 114 193H128.479L107.2 141.401ZM229 239C214.088 239 202 251.088 202 266C202 275.361 206.764 283.61 214 288.453V326C214 334.284 220.716 341 229 341C237.284 341 244 334.284 244 326V288.453C251.236 283.61 256 275.361 256 266C256 251.088 243.912 239 229 239Z" fill="#E7E7E7"/>
</svg>
