<svg width="457" height="457" viewBox="0 0 457 457" fill="none" xmlns="http://www.w3.org/2000/svg">
<rect width="457" height="457" rx="71.5679" fill="#28D8D0"/>
<path fill-rule="evenodd" clip-rule="evenodd" d="M124.583 99.6178C108.245 106.356 100.462 125.062 107.2 141.401L142.846 227.839C145.373 233.966 152.388 236.885 158.515 234.358L169.608 229.783C175.735 227.256 178.654 220.241 176.127 214.114L148.129 146.221C144.747 138.021 148.653 128.633 156.853 125.251L237.171 92.1287C245.371 88.7472 254.76 92.6531 258.141 100.853L286.14 168.746C288.666 174.873 295.681 177.792 301.808 175.265L312.902 170.69C319.029 168.164 321.947 161.148 319.421 155.022L283.774 68.5832C277.037 52.2449 258.33 44.4621 241.991 51.1999L124.583 99.6178Z" fill="#E7E7E7"/>
<path fill-rule="evenodd" clip-rule="evenodd" d="M82 225C82 207.327 96.3269 193 114 193H343C360.673 193 375 207.327 375 225V355C375 372.673 360.673 387 343 387H114C96.3269 387 82 372.673 82 355V225ZM202 266C202 251.088 214.088 239 229 239C243.912 239 256 251.088 256 266C256 275.361 251.236 283.61 244 288.453V326C244 334.284 237.284 341 229 341C220.716 341 214 334.284 214 326V288.453C206.764 283.61 202 275.361 202 266Z" fill="#E7E7E7"/>
</svg>
