<svg width="293" height="339" viewBox="0 0 293 339" fill="none" xmlns="http://www.w3.org/2000/svg">
<path fill-rule="evenodd" clip-rule="evenodd" d="M25.1998 93.4008C18.462 77.0625 26.2448 58.3556 42.5832 51.6178L159.991 3.19987C176.33 -3.5379 195.037 4.24491 201.774 20.5833L237.421 107.022C239.947 113.148 237.029 120.164 230.902 122.69L219.808 127.265C213.681 129.792 206.666 126.873 204.14 120.746L176.141 52.8529C172.76 44.6531 163.371 40.7472 155.171 44.1287L74.8528 77.2512C66.6531 80.6327 62.7471 90.0211 66.1286 98.2209L85.4198 145H261C278.673 145 293 159.327 293 177V307C293 324.673 278.673 339 261 339H32C14.3269 339 0 324.673 0 307V177C0 159.327 14.3269 145 32 145H46.4788L25.1998 93.4008ZM147 191C132.088 191 120 203.088 120 218C120 227.361 124.764 235.61 132 240.453V278C132 286.284 138.716 293 147 293C155.284 293 162 286.284 162 278V240.453C169.236 235.61 174 227.361 174 218C174 203.088 161.912 191 147 191Z" fill="#E7E7E7"/>
</svg>
